<svg id="Layer_1" data-name="Layer 1" xmlns="http://www.w3.org/2000/svg" xmlns:xlink="http://www.w3.org/1999/xlink" viewBox="0 0 400 250"><defs><style>.cls-1{fill:none;}.cls-2{fill:#06c5e0;}.cls-3{clip-path:url(#clip-path);}.cls-4{fill:#7d52b5;}.cls-5{fill:#ccc;}.cls-6{fill:#666;}.cls-7{fill:#e6e6e6;}.cls-8{fill:#b8a0e0;}.cls-9{clip-path:url(#clip-path-3);}.cls-10{fill:#fff;}.cls-11{fill:#d1c5ea;}.cls-12{clip-path:url(#clip-path-5);}.cls-13{fill:#333;}.cls-14{fill:#020202;}.cls-15{fill:#fee187;}.cls-16{fill:#ffc61b;}.cls-17{clip-path:url(#clip-path-7);}.cls-18{clip-path:url(#clip-path-8);}.cls-19{clip-path:url(#clip-path-9);}.cls-20{clip-path:url(#clip-path-10);}.cls-21{clip-path:url(#clip-path-11);}.cls-22{clip-path:url(#clip-path-12);}.cls-23{clip-path:url(#clip-path-13);}.cls-24{clip-path:url(#clip-path-14);}</style><clipPath id="clip-path"><rect class="cls-1" x="19.73" y="135" width="185" height="97.5"/></clipPath><clipPath id="clip-path-3"><rect class="cls-1" x="19.76" y="135" width="184.97" height="97.5"/></clipPath><clipPath id="clip-path-5"><rect class="cls-1" x="328" y="17.34" width="44.61" height="81.78"/></clipPath><clipPath id="clip-path-7"><rect class="cls-1" x="324.28" y="115.23" width="31.02" height="22.67" transform="translate(72.8 371.9) rotate(-63.01)"/></clipPath><clipPath id="clip-path-8"><rect class="cls-1" x="324.52" y="115.97" width="30.95" height="21.47" transform="translate(72.78 372.17) rotate(-63.01)"/></clipPath><clipPath id="clip-path-9"><rect class="cls-1" x="326.99" y="112.1" width="31.02" height="22.67" transform="translate(77.07 372.61) rotate(-63.01)"/></clipPath><clipPath id="clip-path-10"><rect class="cls-1" x="326.82" y="112.55" width="30.95" height="21.47" transform="translate(77.08 372.34) rotate(-63.01)"/></clipPath><clipPath id="clip-path-11"><rect class="cls-1" x="283.5" y="47.4" width="31.02" height="22.67"/></clipPath><clipPath id="clip-path-12"><rect class="cls-1" x="283.57" y="47.74" width="30.95" height="21.47"/></clipPath><clipPath id="clip-path-13"><rect class="cls-1" x="279.48" y="46.4" width="31.02" height="22.67"/></clipPath><clipPath id="clip-path-14"><rect class="cls-1" x="279.48" y="47.25" width="30.95" height="21.47"/></clipPath></defs><title>car</title><rect class="cls-2" width="400" height="250"/><g class="cls-3"><g class="cls-3"><path class="cls-4" d="M199.56,185.28a20.08,20.08,0,0,0-16.2-12.09L155.14,170,140.09,145.5a21.15,21.15,0,0,0-18-10.07H73.47A28.14,28.14,0,0,0,46.34,156.1L46,157.48a23,23,0,0,1-15.9,16A9.69,9.69,0,0,0,23,182.8V210l15.36-3.59a21.5,21.5,0,0,1,38.37-2.19,20.83,20.83,0,0,1,1.1,2.19h65.23a20.83,20.83,0,0,1,1.08-2.17,21.51,21.51,0,0,1,37.29,0,20.72,20.72,0,0,1,1.1,2.19h17.24l1.25-11c.05-.45.09-.89.11-1.34a20,20,0,0,0-1.58-8.8"/><path class="cls-5" d="M204.61,211.19a4.82,4.82,0,0,1-4.82,4.82H184.28c0-.37,0-.74,0-1.11a21.42,21.42,0,0,0-1.77-8.54H199.8a4.82,4.82,0,0,1,4.82,4.82"/><path class="cls-6" d="M169.82,214.9a7,7,0,1,0-7,7,7,7,0,0,0,7-7m10.09,0c0,.37,0,.74,0,1.11a17.1,17.1,0,0,1-34.13,0c0-.37,0-.74,0-1.11a17.1,17.1,0,1,1,34.2,0"/><path class="cls-7" d="M162.81,207.88a7,7,0,1,1-7,7,7,7,0,0,1,7-7"/><path class="cls-5" d="M141.3,214.9c0,.37,0,.75,0,1.11H79.57q0-.56,0-1.11a21.42,21.42,0,0,0-1.77-8.54h65.23a21.53,21.53,0,0,0-1.76,8.54"/><path class="cls-8" d="M66.12,146.63V170H52.73s1.56-6.33,2.55-9.92l.38-1.38a18.08,18.08,0,0,1,.73-2.13,18.52,18.52,0,0,1,9.73-9.91"/><path class="cls-8" d="M99.75,145.1V170H72.12V145.15c.45,0,.9-.05,1.35-.05Z"/><path class="cls-8" d="M143.79,170h-38V145.1h16.33a11.56,11.56,0,0,1,9.78,5.47Z"/><path class="cls-6" d="M65.12,214.9a7,7,0,1,0-7,7,7,7,0,0,0,7-7m10,1.11A17.1,17.1,0,0,1,41,216c0-.37,0-.74,0-1.11a17.1,17.1,0,1,1,34.2,0c0,.37,0,.74,0,1.11"/></g><g class="cls-9"><path class="cls-7" d="M58.1,207.88a7,7,0,1,1-7,7,7,7,0,0,1,7-7"/><path class="cls-5" d="M36.6,214.9c0,.37,0,.74,0,1.11H24.56a4.82,4.82,0,0,1,0-9.65H38.36a21.49,21.49,0,0,0-1.76,8.54"/></g><g class="cls-3"><path class="cls-5" d="M122.23,183.13h-6.3a2.4,2.4,0,0,1,0-4.8h6.3a2.4,2.4,0,0,1,0,4.8"/><path class="cls-5" d="M78.94,183.13h-6.3a2.4,2.4,0,1,1,0-4.8h6.3a2.4,2.4,0,0,1,0,4.8"/><path class="cls-10" d="M201.13,194.08h-4.82a8.8,8.8,0,0,1-8.8-8.8h12a16.23,16.23,0,0,1,1.58,8.8"/><polygon class="cls-11" points="99.75 145.15 99.75 169.96 96.93 169.96 72.12 145.15 99.75 145.15"/><path class="cls-11" d="M143.79,170H130.61L105.75,145.1h16.33a11.56,11.56,0,0,1,9.78,5.47Z"/><path class="cls-11" d="M66.12,146.63v19.64l-9.73-9.73a18.52,18.52,0,0,1,9.73-9.91"/></g></g><g class="cls-12"><g class="cls-12"><path class="cls-13" d="M335.11,99.12h30.4a7.11,7.11,0,0,0,7.11-7.1V24.45a7.11,7.11,0,0,0-7.11-7.11h-30.4A7.11,7.11,0,0,0,328,24.45V92a7.11,7.11,0,0,0,7.11,7.1"/><path class="cls-14" d="M365.5,17.34H350.18V99.12H365.5a7.1,7.1,0,0,0,7.11-7.1V24.45a7.11,7.11,0,0,0-7.11-7.11"/><rect class="cls-15" x="330.47" y="23.65" width="39.65" height="61.73"/><rect class="cls-16" x="350.17" y="23.65" width="19.96" height="61.73"/></g></g><g class="cls-17"><g class="cls-18"><path class="cls-10" d="M347.15,135.62a1.07,1.07,0,0,0-.65-2L336.17,137l11.5-22.58a1.06,1.06,0,0,0-.46-1.43,1.07,1.07,0,0,0-1.44.46L334.27,136l-3.34-10.32a1.09,1.09,0,0,0-1.35-.69,1.06,1.06,0,0,0-.69,1.35L333,139.1a1,1,0,0,0,1.33.68Z"/></g></g><g class="cls-19"><g class="cls-20"><path class="cls-10" d="M335.13,114.38a1.07,1.07,0,1,0,.65,2L346.11,113l-11.5,22.58a1.06,1.06,0,0,0,.46,1.43,1.07,1.07,0,0,0,1.44-.46L348,114l3.34,10.32a1.09,1.09,0,0,0,1.35.69,1.06,1.06,0,0,0,.69-1.35l-4.15-12.77a1,1,0,0,0-1.33-.68Z"/></g></g><g class="cls-21"><g class="cls-22"><path class="cls-10" d="M303.74,48.05a1.07,1.07,0,1,0-1.52,1.5l7.68,7.68H284.56a1.06,1.06,0,0,0-1.06,1.06,1.07,1.07,0,0,0,1.06,1.08h25.34L302.22,67a1.09,1.09,0,0,0,0,1.52,1.06,1.06,0,0,0,1.52,0l9.5-9.5a1,1,0,0,0,0-1.5Z"/></g></g><g class="cls-23"><g class="cls-24"><path class="cls-10" d="M290.26,68.4a1.07,1.07,0,1,0,1.52-1.5l-7.68-7.68h25.34a1.06,1.06,0,0,0,1.06-1.06,1.07,1.07,0,0,0-1.06-1.08H284.09l7.68-7.66a1.09,1.09,0,0,0,0-1.52,1.06,1.06,0,0,0-1.52,0l-9.5,9.5a1,1,0,0,0,0,1.5Z"/></g></g></svg>