<svg id="Layer_1" data-name="Layer 1" xmlns="http://www.w3.org/2000/svg" xmlns:xlink="http://www.w3.org/1999/xlink" viewBox="0 0 400 250"><defs><style>.cls-1{fill:none;}.cls-2{fill:#06c5e0;}.cls-3{clip-path:url(#clip-path);}.cls-4{fill:#fff;}.cls-5{clip-path:url(#clip-path-3);}.cls-6{clip-path:url(#clip-path-4);}.cls-7{clip-path:url(#clip-path-5);}.cls-8{clip-path:url(#clip-path-6);}.cls-9{clip-path:url(#clip-path-7);}.cls-10{clip-path:url(#clip-path-8);}.cls-11{clip-path:url(#clip-path-9);}.cls-12{clip-path:url(#clip-path-10);}.cls-13{clip-path:url(#clip-path-11);}.cls-14{clip-path:url(#clip-path-12);}.cls-15{clip-path:url(#clip-path-13);}.cls-16{clip-path:url(#clip-path-14);}.cls-17{clip-path:url(#clip-path-15);}.cls-18{clip-path:url(#clip-path-16);}.cls-19{clip-path:url(#clip-path-17);}.cls-20{clip-path:url(#clip-path-18);}.cls-21{clip-path:url(#clip-path-19);}.cls-22{clip-path:url(#clip-path-20);}.cls-23{clip-path:url(#clip-path-21);}.cls-24{clip-path:url(#clip-path-22);}.cls-25{clip-path:url(#clip-path-23);}.cls-26{clip-path:url(#clip-path-24);}.cls-27{clip-path:url(#clip-path-25);}.cls-28{clip-path:url(#clip-path-26);}.cls-29{clip-path:url(#clip-path-27);}.cls-30{clip-path:url(#clip-path-28);}.cls-31{clip-path:url(#clip-path-29);}.cls-32{clip-path:url(#clip-path-30);}.cls-33{clip-path:url(#clip-path-31);}.cls-34{clip-path:url(#clip-path-32);}.cls-35{clip-path:url(#clip-path-33);}.cls-36{clip-path:url(#clip-path-34);}</style><clipPath id="clip-path"><rect class="cls-1" x="50.25" y="40.74" width="299.5" height="163.93"/></clipPath><clipPath id="clip-path-3"><rect class="cls-1" x="360.33" y="121.33" width="31.02" height="22.67"/></clipPath><clipPath id="clip-path-4"><rect class="cls-1" x="360.4" y="121.67" width="30.95" height="21.47"/></clipPath><clipPath id="clip-path-5"><rect class="cls-1" x="9.67" y="121.33" width="31.02" height="22.67"/></clipPath><clipPath id="clip-path-6"><rect class="cls-1" x="9.67" y="122.19" width="30.95" height="21.47"/></clipPath><clipPath id="clip-path-7"><rect class="cls-1" x="188.67" y="9.72" width="22.67" height="31.02"/></clipPath><clipPath id="clip-path-8"><rect class="cls-1" x="189.01" y="9.72" width="21.47" height="30.95"/></clipPath><clipPath id="clip-path-9"><rect class="cls-1" x="349" y="199.82" width="22.67" height="31.02" transform="translate(-46.72 317.86) rotate(-45)"/></clipPath><clipPath id="clip-path-10"><rect class="cls-1" x="349.8" y="199.71" width="21.47" height="30.95" transform="translate(-46.55 317.96) rotate(-45)"/></clipPath><clipPath id="clip-path-11"><rect class="cls-1" x="334.24" y="29.41" width="31.02" height="22.67" transform="translate(73.63 259.24) rotate(-45)"/></clipPath><clipPath id="clip-path-12"><rect class="cls-1" x="334.12" y="29.8" width="30.95" height="21.47" transform="translate(73.73 259.07) rotate(-45)"/></clipPath><clipPath id="clip-path-13"><rect class="cls-1" x="48.33" y="25.23" width="22.67" height="31.02" transform="translate(-11.33 54.12) rotate(-45)"/></clipPath><clipPath id="clip-path-14"><rect class="cls-1" x="48.72" y="25.42" width="21.47" height="30.95" transform="translate(-11.5 54.02) rotate(-45)"/></clipPath><clipPath id="clip-path-15"><rect class="cls-1" x="34.74" y="204" width="31.02" height="22.67" transform="translate(-137.55 98.6) rotate(-45)"/></clipPath><clipPath id="clip-path-16"><rect class="cls-1" x="34.93" y="204.8" width="30.95" height="21.47" transform="translate(-137.65 98.77) rotate(-45)"/></clipPath><clipPath id="clip-path-17"><rect class="cls-1" x="52.58" y="30.71" width="22.67" height="31.02" transform="translate(-13.96 58.73) rotate(-45)"/></clipPath><clipPath id="clip-path-18"><rect class="cls-1" x="53.38" y="30.59" width="21.47" height="30.95" transform="translate(-13.79 58.83) rotate(-45)"/></clipPath><clipPath id="clip-path-19"><rect class="cls-1" x="345" y="194.89" width="22.67" height="31.02" transform="translate(-44.41 313.59) rotate(-45)"/></clipPath><clipPath id="clip-path-20"><rect class="cls-1" x="345.39" y="195.08" width="21.47" height="30.95" transform="translate(-44.58 313.49) rotate(-45)"/></clipPath><clipPath id="clip-path-21"><rect class="cls-1" x="38.89" y="200.82" width="31.02" height="22.67" transform="translate(-134.09 100.6) rotate(-45)"/></clipPath><clipPath id="clip-path-22"><rect class="cls-1" x="38.77" y="201.22" width="30.95" height="21.47" transform="translate(-133.99 100.43) rotate(-45)"/></clipPath><clipPath id="clip-path-23"><rect class="cls-1" x="330.22" y="32.41" width="31.02" height="22.67" transform="translate(70.33 257.28) rotate(-45)"/></clipPath><clipPath id="clip-path-24"><rect class="cls-1" x="330.41" y="33.22" width="30.95" height="21.47" transform="translate(70.23 257.45) rotate(-45)"/></clipPath><clipPath id="clip-path-25"><rect class="cls-1" x="15.67" y="122.33" width="31.02" height="22.67"/></clipPath><clipPath id="clip-path-26"><rect class="cls-1" x="15.74" y="122.67" width="30.95" height="21.47"/></clipPath><clipPath id="clip-path-27"><rect class="cls-1" x="355.33" y="120.33" width="31.02" height="22.67"/></clipPath><clipPath id="clip-path-28"><rect class="cls-1" x="355.33" y="121.19" width="30.95" height="21.47"/></clipPath><clipPath id="clip-path-29"><rect class="cls-1" x="187.67" y="12.73" width="22.67" height="31.02"/></clipPath><clipPath id="clip-path-30"><rect class="cls-1" x="188.52" y="12.8" width="21.47" height="30.95"/></clipPath><clipPath id="clip-path-31"><rect class="cls-1" x="188.67" y="212.16" width="22.67" height="31.02"/></clipPath><clipPath id="clip-path-32"><rect class="cls-1" x="189.52" y="212.23" width="21.47" height="30.95"/></clipPath><clipPath id="clip-path-33"><rect class="cls-1" x="189.67" y="208.14" width="22.67" height="31.02"/></clipPath><clipPath id="clip-path-34"><rect class="cls-1" x="190.01" y="208.14" width="21.47" height="30.95"/></clipPath></defs><title>small-cloud</title><rect class="cls-2" width="400" height="250"/><g class="cls-3"><g class="cls-3"><path class="cls-4" d="M92,101.39c0-.34,0-.68,0-1,0-32.56,27.14-59,60.61-59,28.85,0,53,19.6,59.11,45.86A40.23,40.23,0,0,1,231,82.38c21.87,0,39.59,17.24,39.59,38.52,0,.87,0,1.73-.1,2.58,16.23,5.86,27.8,21.06,27.8,38.9,0,22.91-19.09,41.48-42.64,41.48H103.55c-29.44,0-53.3-23.21-53.3-51.85,0-24.77,17.85-45.48,41.72-50.62"/><path class="cls-4" d="M349.23,143.11c0,26.33-21.95,47.68-49,47.68H297.8A48.68,48.68,0,0,0,307,162.37c0-18.74-11-35.89-27.8-44.37C277.61,93.45,256.59,73.94,231,73.94a49.75,49.75,0,0,0-13.84,2,67.32,67.32,0,0,0-6.73-12.63,56.18,56.18,0,0,1,44.73-21.87c30.78,0,55.74,24.27,55.74,54.22,0,.32,0,.63,0,.94,22,4.73,38.37,23.77,38.37,46.55"/></g></g><g class="cls-5"><g class="cls-6"><path class="cls-4" d="M380.57,122a1.07,1.07,0,0,0-1.52,1.5l7.68,7.68H361.4a1.06,1.06,0,0,0-1.06,1.06,1.07,1.07,0,0,0,1.06,1.08h25.34L379.06,141a1.09,1.09,0,0,0,0,1.52,1.06,1.06,0,0,0,1.52,0l9.5-9.5a1,1,0,0,0,0-1.5Z"/></g></g><g class="cls-7"><g class="cls-8"><path class="cls-4" d="M20.45,143.34a1.07,1.07,0,0,0,1.52-1.5l-7.68-7.68H39.62a1.06,1.06,0,0,0,1.06-1.06A1.07,1.07,0,0,0,39.62,132H14.28L22,124.36a1.09,1.09,0,0,0,0-1.52,1.06,1.06,0,0,0-1.52,0l-9.5,9.5a1,1,0,0,0,0,1.5Z"/></g></g><g class="cls-9"><g class="cls-10"><path class="cls-4" d="M189.33,20.5a1.07,1.07,0,0,0,1.5,1.52l7.68-7.68V39.68a1.06,1.06,0,0,0,1.06,1.06,1.07,1.07,0,0,0,1.08-1.06V14.34L208.31,22a1.09,1.09,0,0,0,1.52,0,1.06,1.06,0,0,0,0-1.52l-9.5-9.5a1,1,0,0,0-1.5,0Z"/></g></g><g class="cls-11"><g class="cls-12"><path class="cls-4" d="M371.23,211.13a1.07,1.07,0,0,0-2.13,0V222l-17.92-17.92a1.06,1.06,0,0,0-1.5,0,1.07,1.07,0,0,0,0,1.51l17.92,17.92H356.73a1.09,1.09,0,0,0-1.07,1.07,1.06,1.06,0,0,0,1.07,1.07h13.43a1,1,0,0,0,1.06-1.06Z"/></g></g><g class="cls-13"><g class="cls-14"><path class="cls-4" d="M345.55,29.85a1.07,1.07,0,0,0,0,2.13H356.4L338.48,49.9a1.06,1.06,0,0,0,0,1.5,1.07,1.07,0,0,0,1.51,0l17.92-17.92V44.34A1.09,1.09,0,0,0,359,45.41,1.06,1.06,0,0,0,360,44.34V30.91A1,1,0,0,0,359,29.85Z"/></g></g><g class="cls-15"><g class="cls-16"><path class="cls-4" d="M48.77,44.94a1.07,1.07,0,0,0,2.13,0V34.09L68.82,52a1.06,1.06,0,0,0,1.5,0,1.07,1.07,0,0,0,0-1.51L52.42,32.58H63.26a1.09,1.09,0,0,0,1.07-1.07,1.06,1.06,0,0,0-1.07-1.07H49.83a1,1,0,0,0-1.06,1.06Z"/></g></g><g class="cls-17"><g class="cls-18"><path class="cls-4" d="M54.45,226.23a1.07,1.07,0,1,0,0-2.13H43.6l17.92-17.92a1.06,1.06,0,0,0,0-1.5,1.07,1.07,0,0,0-1.51,0L42.09,222.58V211.73A1.09,1.09,0,0,0,41,210.66,1.06,1.06,0,0,0,40,211.73v13.43A1,1,0,0,0,41,226.22Z"/></g></g><g class="cls-19"><g class="cls-20"><path class="cls-4" d="M74.81,42a1.07,1.07,0,1,0-2.13,0V52.87L54.76,34.95a1.06,1.06,0,0,0-1.5,0,1.07,1.07,0,0,0,0,1.51L71.16,54.38H60.31a1.09,1.09,0,0,0-1.07,1.07,1.06,1.06,0,0,0,1.07,1.07H73.75a1,1,0,0,0,1.06-1.06Z"/></g></g><g class="cls-21"><g class="cls-22"><path class="cls-4" d="M345.44,214.6a1.07,1.07,0,0,0,2.13,0V203.75l17.92,17.92a1.06,1.06,0,0,0,1.5,0,1.07,1.07,0,0,0,0-1.51l-17.92-17.92h10.85a1.09,1.09,0,0,0,1.07-1.07,1.06,1.06,0,0,0-1.07-1.07H346.5a1,1,0,0,0-1.06,1.06Z"/></g></g><g class="cls-23"><g class="cls-24"><path class="cls-4" d="M50.19,201.26a1.07,1.07,0,1,0,0,2.13H61L43.13,221.32a1.06,1.06,0,0,0,0,1.5,1.07,1.07,0,0,0,1.51,0l17.92-17.92v10.85a1.09,1.09,0,0,0,1.07,1.07,1.06,1.06,0,0,0,1.07-1.07V202.33a1,1,0,0,0-1.06-1.06Z"/></g></g><g class="cls-25"><g class="cls-26"><path class="cls-4" d="M349.93,54.64a1.07,1.07,0,1,0,0-2.13H339.08L357,34.59a1.06,1.06,0,0,0,0-1.5,1.07,1.07,0,0,0-1.51,0L337.57,51V40.15a1.09,1.09,0,0,0-1.07-1.07,1.06,1.06,0,0,0-1.07,1.07V53.58a1,1,0,0,0,1.06,1.06Z"/></g></g><g class="cls-27"><g class="cls-28"><path class="cls-4" d="M35.91,123a1.07,1.07,0,0,0-1.52,1.5l7.68,7.68H16.73a1.06,1.06,0,0,0-1.06,1.06,1.07,1.07,0,0,0,1.06,1.08H42.07L34.39,142a1.09,1.09,0,0,0,0,1.52,1.06,1.06,0,0,0,1.52,0l9.5-9.5a1,1,0,0,0,0-1.5Z"/></g></g><g class="cls-29"><g class="cls-30"><path class="cls-4" d="M366.11,142.34a1.07,1.07,0,1,0,1.52-1.5l-7.68-7.68h25.34a1.06,1.06,0,0,0,1.06-1.06,1.07,1.07,0,0,0-1.06-1.08H359.95l7.68-7.66a1.09,1.09,0,0,0,0-1.52,1.06,1.06,0,0,0-1.52,0l-9.5,9.5a1,1,0,0,0,0,1.5Z"/></g></g><g class="cls-31"><g class="cls-32"><path class="cls-4" d="M209.67,33a1.07,1.07,0,0,0-1.5-1.52l-7.68,7.68V13.79a1.06,1.06,0,0,0-1.06-1.06,1.07,1.07,0,0,0-1.08,1.06V39.14l-7.66-7.68a1.09,1.09,0,0,0-1.52,0,1.06,1.06,0,0,0,0,1.52l9.5,9.5a1,1,0,0,0,1.5,0Z"/></g></g><g class="cls-33"><g class="cls-34"><path class="cls-4" d="M210.67,232.4a1.07,1.07,0,0,0-1.5-1.52l-7.68,7.68V213.22a1.06,1.06,0,0,0-1.06-1.06,1.07,1.07,0,0,0-1.08,1.06v25.34l-7.66-7.68a1.09,1.09,0,0,0-1.52,0,1.06,1.06,0,0,0,0,1.52l9.5,9.5a1,1,0,0,0,1.5,0Z"/></g></g><g class="cls-35"><g class="cls-36"><path class="cls-4" d="M190.33,218.92a1.07,1.07,0,0,0,1.5,1.52l7.68-7.68v25.34a1.06,1.06,0,0,0,1.06,1.06,1.07,1.07,0,0,0,1.08-1.06V212.75l7.66,7.68a1.09,1.09,0,0,0,1.52,0,1.06,1.06,0,0,0,0-1.52l-9.5-9.5a1,1,0,0,0-1.5,0Z"/></g></g></svg>