<svg id="Layer_1" data-name="Layer 1" xmlns="http://www.w3.org/2000/svg" xmlns:xlink="http://www.w3.org/1999/xlink" viewBox="0 0 800 250"><defs><style>.cls-1{fill:none;}.cls-2{fill:#06c5e0;}.cls-3{clip-path:url(#clip-path);}.cls-4{fill:#fff;}.cls-5{clip-path:url(#clip-path-3);}.cls-6{clip-path:url(#clip-path-4);}.cls-7{clip-path:url(#clip-path-5);}.cls-8{clip-path:url(#clip-path-6);}.cls-9{clip-path:url(#clip-path-7);}.cls-10{clip-path:url(#clip-path-8);}.cls-11{clip-path:url(#clip-path-9);}.cls-12{clip-path:url(#clip-path-10);}.cls-13{clip-path:url(#clip-path-11);}.cls-14{clip-path:url(#clip-path-12);}.cls-15{clip-path:url(#clip-path-13);}.cls-16{clip-path:url(#clip-path-14);}.cls-17{clip-path:url(#clip-path-15);}.cls-18{clip-path:url(#clip-path-16);}.cls-19{clip-path:url(#clip-path-17);}.cls-20{clip-path:url(#clip-path-18);}.cls-21{clip-path:url(#clip-path-19);}.cls-22{clip-path:url(#clip-path-20);}.cls-23{clip-path:url(#clip-path-21);}.cls-24{clip-path:url(#clip-path-22);}.cls-25{clip-path:url(#clip-path-23);}.cls-26{clip-path:url(#clip-path-24);}.cls-27{clip-path:url(#clip-path-25);}.cls-28{clip-path:url(#clip-path-26);}</style><clipPath id="clip-path"><rect class="cls-1" x="132.33" y="10.33" width="496" height="198"/></clipPath><clipPath id="clip-path-3"><rect class="cls-1" x="185" y="210.33" width="22.67" height="31.02"/></clipPath><clipPath id="clip-path-4"><rect class="cls-1" x="185.85" y="210.4" width="21.47" height="30.95"/></clipPath><clipPath id="clip-path-5"><rect class="cls-1" x="244.08" y="210.33" width="22.67" height="31.02"/></clipPath><clipPath id="clip-path-6"><rect class="cls-1" x="244.94" y="210.4" width="21.47" height="30.95"/></clipPath><clipPath id="clip-path-7"><rect class="cls-1" x="303.17" y="210.33" width="22.67" height="31.02"/></clipPath><clipPath id="clip-path-8"><rect class="cls-1" x="304.02" y="210.4" width="21.47" height="30.95"/></clipPath><clipPath id="clip-path-9"><rect class="cls-1" x="357.67" y="210.33" width="22.67" height="31.02"/></clipPath><clipPath id="clip-path-10"><rect class="cls-1" x="358.52" y="210.4" width="21.47" height="30.95"/></clipPath><clipPath id="clip-path-11"><rect class="cls-1" x="416" y="210.33" width="22.67" height="31.02"/></clipPath><clipPath id="clip-path-12"><rect class="cls-1" x="416.85" y="210.4" width="21.47" height="30.95"/></clipPath><clipPath id="clip-path-13"><rect class="cls-1" x="474.33" y="210.33" width="22.67" height="31.02"/></clipPath><clipPath id="clip-path-14"><rect class="cls-1" x="475.19" y="210.4" width="21.47" height="30.95"/></clipPath><clipPath id="clip-path-15"><rect class="cls-1" x="475.33" y="207.33" width="22.67" height="31.02"/></clipPath><clipPath id="clip-path-16"><rect class="cls-1" x="475.67" y="207.33" width="21.47" height="30.95"/></clipPath><clipPath id="clip-path-17"><rect class="cls-1" x="417" y="208.33" width="22.67" height="31.02"/></clipPath><clipPath id="clip-path-18"><rect class="cls-1" x="417.34" y="208.33" width="21.47" height="30.95"/></clipPath><clipPath id="clip-path-19"><rect class="cls-1" x="358.67" y="208.33" width="22.67" height="31.02"/></clipPath><clipPath id="clip-path-20"><rect class="cls-1" x="359.01" y="208.33" width="21.47" height="30.95"/></clipPath><clipPath id="clip-path-21"><rect class="cls-1" x="303.67" y="208.33" width="22.67" height="31.02"/></clipPath><clipPath id="clip-path-22"><rect class="cls-1" x="304.01" y="208.33" width="21.47" height="30.95"/></clipPath><clipPath id="clip-path-23"><rect class="cls-1" x="245.38" y="208.33" width="22.67" height="31.02"/></clipPath><clipPath id="clip-path-24"><rect class="cls-1" x="245.72" y="208.33" width="21.47" height="30.95"/></clipPath><clipPath id="clip-path-25"><rect class="cls-1" x="186.08" y="208.33" width="22.67" height="31.02"/></clipPath><clipPath id="clip-path-26"><rect class="cls-1" x="186.42" y="208.33" width="21.47" height="30.95"/></clipPath></defs><title>cloud-large</title><rect class="cls-2" width="800" height="250"/><g class="cls-3"><g class="cls-3"><path class="cls-4" d="M201.43,83.58c0-.41,0-.82,0-1.23,0-39.33,44.94-71.21,100.37-71.21,47.77,0,87.75,23.68,97.89,55.4a86.85,86.85,0,0,1,32-5.91c36.21,0,65.57,20.83,65.57,46.53,0,1-.06,2.09-.16,3.12,26.88,7.08,46,25.44,46,47,0,27.67-31.62,50.1-70.62,50.1H220.61c-48.75,0-88.27-28-88.27-62.62,0-29.92,29.56-54.93,69.1-61.14"/><path class="cls-4" d="M627.48,134c0,31.81-36.34,57.59-81.17,57.59h-4c9.55-9.74,15.15-21.58,15.15-34.32,0-22.64-18.14-43.35-46-53.59C508.87,74,474.05,50.43,431.63,50.43a111.14,111.14,0,0,0-22.92,2.38,77.45,77.45,0,0,0-11.14-15.26c16.82-16,43.74-26.42,74.07-26.42,51,0,92.3,29.32,92.3,65.49,0,.38,0,.76,0,1.14,36.35,5.72,63.54,28.71,63.54,56.22"/></g></g><g class="cls-5"><g class="cls-6"><path class="cls-4" d="M207,230.57a1.07,1.07,0,1,0-1.5-1.52l-7.68,7.68V211.4a1.06,1.06,0,0,0-1.06-1.06,1.07,1.07,0,0,0-1.08,1.06v25.34L188,229.06a1.09,1.09,0,0,0-1.52,0,1.06,1.06,0,0,0,0,1.52l9.5,9.5a1,1,0,0,0,1.5,0Z"/></g></g><g class="cls-7"><g class="cls-8"><path class="cls-4" d="M266.09,230.57a1.07,1.07,0,1,0-1.5-1.52l-7.68,7.68V211.4a1.06,1.06,0,0,0-1.06-1.06,1.07,1.07,0,0,0-1.08,1.06v25.34l-7.66-7.68a1.09,1.09,0,0,0-1.52,0,1.06,1.06,0,0,0,0,1.52l9.5,9.5a1,1,0,0,0,1.5,0Z"/></g></g><g class="cls-9"><g class="cls-10"><path class="cls-4" d="M325.17,230.57a1.07,1.07,0,1,0-1.5-1.52L316,236.74V211.4a1.06,1.06,0,0,0-1.06-1.06,1.07,1.07,0,0,0-1.08,1.06v25.34l-7.66-7.68a1.09,1.09,0,0,0-1.52,0,1.06,1.06,0,0,0,0,1.52l9.5,9.5a1,1,0,0,0,1.5,0Z"/></g></g><g class="cls-11"><g class="cls-12"><path class="cls-4" d="M379.67,230.57a1.07,1.07,0,0,0-1.5-1.52l-7.68,7.68V211.4a1.06,1.06,0,0,0-1.06-1.06,1.07,1.07,0,0,0-1.08,1.06v25.34l-7.66-7.68a1.09,1.09,0,0,0-1.52,0,1.06,1.06,0,0,0,0,1.52l9.5,9.5a1,1,0,0,0,1.5,0Z"/></g></g><g class="cls-13"><g class="cls-14"><path class="cls-4" d="M438,230.57a1.07,1.07,0,0,0-1.5-1.52l-7.68,7.68V211.4a1.06,1.06,0,0,0-1.06-1.06,1.07,1.07,0,0,0-1.08,1.06v25.34L419,229.06a1.09,1.09,0,0,0-1.52,0,1.06,1.06,0,0,0,0,1.52l9.5,9.5a1,1,0,0,0,1.5,0Z"/></g></g><g class="cls-15"><g class="cls-16"><path class="cls-4" d="M496.34,230.57a1.07,1.07,0,1,0-1.5-1.52l-7.68,7.68V211.4a1.06,1.06,0,0,0-1.06-1.06A1.07,1.07,0,0,0,485,211.4v25.34l-7.66-7.68a1.09,1.09,0,0,0-1.52,0,1.06,1.06,0,0,0,0,1.52l9.5,9.5a1,1,0,0,0,1.5,0Z"/></g></g><g class="cls-17"><g class="cls-18"><path class="cls-4" d="M476,218.11a1.07,1.07,0,0,0,1.5,1.52l7.68-7.68v25.34a1.06,1.06,0,0,0,1.06,1.06,1.07,1.07,0,0,0,1.08-1.06V211.95l7.66,7.68a1.09,1.09,0,0,0,1.52,0,1.06,1.06,0,0,0,0-1.52l-9.5-9.5a1,1,0,0,0-1.5,0Z"/></g></g><g class="cls-19"><g class="cls-20"><path class="cls-4" d="M417.66,219.11a1.07,1.07,0,1,0,1.5,1.52l7.68-7.68v25.34a1.06,1.06,0,0,0,1.06,1.06,1.07,1.07,0,0,0,1.08-1.06V212.95l7.66,7.68a1.09,1.09,0,0,0,1.52,0,1.06,1.06,0,0,0,0-1.52l-9.5-9.5a1,1,0,0,0-1.5,0Z"/></g></g><g class="cls-21"><g class="cls-22"><path class="cls-4" d="M359.33,219.11a1.07,1.07,0,1,0,1.5,1.52l7.68-7.68v25.34a1.06,1.06,0,0,0,1.06,1.06,1.07,1.07,0,0,0,1.08-1.06V212.95l7.66,7.68a1.09,1.09,0,0,0,1.52,0,1.06,1.06,0,0,0,0-1.52l-9.5-9.5a1,1,0,0,0-1.5,0Z"/></g></g><g class="cls-23"><g class="cls-24"><path class="cls-4" d="M304.33,219.11a1.07,1.07,0,0,0,1.5,1.52l7.68-7.68v25.34a1.06,1.06,0,0,0,1.06,1.06,1.07,1.07,0,0,0,1.08-1.06V212.95l7.66,7.68a1.09,1.09,0,0,0,1.52,0,1.06,1.06,0,0,0,0-1.52l-9.5-9.5a1,1,0,0,0-1.5,0Z"/></g></g><g class="cls-25"><g class="cls-26"><path class="cls-4" d="M246,219.11a1.07,1.07,0,1,0,1.5,1.52l7.68-7.68v25.34a1.06,1.06,0,0,0,1.06,1.06,1.07,1.07,0,0,0,1.08-1.06V212.95l7.66,7.68a1.09,1.09,0,0,0,1.52,0,1.06,1.06,0,0,0,0-1.52l-9.5-9.5a1,1,0,0,0-1.5,0Z"/></g></g><g class="cls-27"><g class="cls-28"><path class="cls-4" d="M186.74,219.11a1.07,1.07,0,1,0,1.5,1.52l7.68-7.68v25.34a1.06,1.06,0,0,0,1.06,1.06,1.07,1.07,0,0,0,1.08-1.06V212.95l7.66,7.68a1.09,1.09,0,0,0,1.52,0,1.06,1.06,0,0,0,0-1.52l-9.5-9.5a1,1,0,0,0-1.5,0Z"/></g></g></svg>