<svg id="Layer_1" data-name="Layer 1" xmlns="http://www.w3.org/2000/svg" xmlns:xlink="http://www.w3.org/1999/xlink" viewBox="0 0 1052.46 588.85"><defs><style>.cls-1,.cls-22,.cls-23,.cls-24,.cls-25,.cls-26,.cls-27,.cls-28,.cls-29,.cls-3,.cls-30,.cls-31,.cls-32,.cls-33,.cls-34,.cls-35,.cls-36,.cls-37,.cls-4,.cls-5{fill:none;}.cls-2{fill:#0a9dd6;}.cls-22,.cls-23,.cls-24,.cls-25,.cls-26,.cls-27,.cls-28,.cls-29,.cls-3,.cls-30,.cls-31,.cls-32,.cls-33,.cls-34,.cls-35,.cls-36,.cls-37,.cls-4,.cls-5{stroke:#231f20;}.cls-20,.cls-22,.cls-23,.cls-24,.cls-25,.cls-26,.cls-27,.cls-28,.cls-29,.cls-3,.cls-30,.cls-31,.cls-32,.cls-33,.cls-34,.cls-35,.cls-36,.cls-37,.cls-4,.cls-5{stroke-miterlimit:10;}.cls-4{stroke-dasharray:11.88 11.88;}.cls-5{stroke-dasharray:11.55 11.55;}.cls-6{clip-path:url(#clip-path);}.cls-7{fill:gray;}.cls-8{fill:#999;}.cls-9{fill:#ccc;}.cls-10{fill:#1a1a1a;}.cls-11{fill:#4d4d4d;}.cls-12{clip-path:url(#clip-path-3);}.cls-13{clip-path:url(#clip-path-4);}.cls-14{fill:#333;}.cls-15{fill:#020202;}.cls-16{fill:#a7a9ac;}.cls-17{fill:#808285;}.cls-18{clip-path:url(#clip-path-5);}.cls-19{clip-path:url(#clip-path-6);}.cls-20{fill:#fff;stroke:#202529;stroke-width:2px;}.cls-21{fill:#202529;}.cls-22{stroke-dasharray:11.9 11.9;}.cls-23{stroke-dasharray:11.57 11.57;}.cls-24{stroke-dasharray:12.28 12.28;}.cls-25{stroke-dasharray:11.67 11.67;}.cls-26{stroke-dasharray:11.68 11.68;}.cls-27{stroke-dasharray:11.36 11.36;}.cls-28{stroke-dasharray:12.09 12.09;}.cls-29{stroke-dasharray:12.05 12.05;}.cls-30{stroke-dasharray:11.13 11.13;}.cls-31{stroke-dasharray:12.53 12.53;}.cls-32{stroke-dasharray:11.64 11.64;}.cls-33{stroke-dasharray:11.6 11.6;}.cls-34{stroke-dasharray:12.06 12.06;}.cls-35{stroke-dasharray:10.67 10.67;}.cls-36{stroke-dasharray:12.96 12.96;}.cls-37{stroke-dasharray:11.97 11.97;}.cls-38{clip-path:url(#clip-path-7);}.cls-39{fill:#d1d3d4;}.cls-40{fill:#bcbec0;}.cls-41{clip-path:url(#clip-path-9);}.cls-42{clip-path:url(#clip-path-10);}.cls-43{clip-path:url(#clip-path-13);}.cls-44{clip-path:url(#clip-path-14);}</style><clipPath id="clip-path" transform="translate(-109.63 -31.02)"><rect class="cls-1" x="783.3" y="78.14" width="106.4" height="87.08"/></clipPath><clipPath id="clip-path-3" transform="translate(-109.63 -31.02)"><rect class="cls-1" x="343.56" y="232.67" width="60.55" height="80.98"/></clipPath><clipPath id="clip-path-4" transform="translate(-109.63 -31.02)"><rect class="cls-1" x="343.56" y="232.67" width="60.55" height="80.98"/></clipPath><clipPath id="clip-path-5" transform="translate(-109.63 -31.02)"><rect class="cls-1" x="993" y="31.33" width="154.18" height="112.07"/></clipPath><clipPath id="clip-path-6" transform="translate(-109.63 -31.02)"><rect class="cls-1" x="994.5" y="31.19" width="304.11" height="170.42"/></clipPath><clipPath id="clip-path-7" transform="translate(-109.63 -31.02)"><rect class="cls-1" x="515.35" y="196.94" width="239.39" height="138.44"/></clipPath><clipPath id="clip-path-9" transform="translate(-109.63 -31.02)"><rect class="cls-1" x="1088.75" y="237.84" width="73.48" height="98.66"/></clipPath><clipPath id="clip-path-10" transform="translate(-109.63 -31.02)"><rect class="cls-1" x="1088.77" y="238.2" width="73.46" height="98.25"/></clipPath><clipPath id="clip-path-13" transform="translate(-109.63 -31.02)"><rect class="cls-1" x="959" y="234.22" width="73.48" height="98.66"/></clipPath><clipPath id="clip-path-14" transform="translate(-109.63 -31.02)"><rect class="cls-1" x="959.03" y="234.57" width="73.46" height="98.25"/></clipPath></defs><title>diagram3</title><polygon class="cls-2" points="766.23 412.18 766.23 412.18 625.99 283.68 625.99 283.68 766.23 412.18"/><polyline class="cls-3" points="761.81 408.12 766.23 412.18 761.81 408.12"/><line class="cls-4" x1="753.05" y1="400.1" x2="634.8" y2="291.75"/><polyline class="cls-3" points="630.42 287.74 625.99 283.68 630.42 287.74"/><line class="cls-4" x1="639.18" y1="295.76" x2="757.43" y2="404.11"/><polygon class="cls-2" points="421.55 295.48 421.55 295.48 305.24 408.42 305.24 408.42 421.55 295.48"/><polyline class="cls-3" points="417.24 299.66 421.55 295.48 417.24 299.66"/><line class="cls-5" x1="408.96" y1="307.7" x2="313.68" y2="400.22"/><polyline class="cls-3" points="309.54 404.24 305.24 408.42 309.54 404.24"/><line class="cls-5" x1="317.82" y1="396.2" x2="413.1" y2="303.68"/><g class="cls-6"><g class="cls-6"><polygon class="cls-7" points="736.18 114.54 738.4 131.44 715.07 131.44 717.29 114.54 736.18 114.54"/><path class="cls-8" d="M813.74,135.52l-6.08,10h-21.4a3,3,0,0,1-3-3v-7.08Z" transform="translate(-109.63 -31.02)"/><path class="cls-9" d="M889.42,135.52v7.08a3,3,0,0,1-3,3H807.66l6.08-10Z" transform="translate(-109.63 -31.02)"/><path class="cls-10" d="M848.38,78.25l-34.64,57.26H783.3V81.21a3,3,0,0,1,3-3Z" transform="translate(-109.63 -31.02)"/><path class="cls-11" d="M889.42,81.21v54.3H813.74l34.64-57.26h38.07A3,3,0,0,1,889.42,81.21Z" transform="translate(-109.63 -31.02)"/><rect class="cls-9" x="706.17" y="128.99" width="41.13" height="4.91"/></g></g><g class="cls-12"><g class="cls-13"><path class="cls-14" d="M348.28,313.87H399.4a4.71,4.71,0,0,0,4.71-4.71V237.38a4.71,4.71,0,0,0-4.71-4.71H348.28a4.71,4.71,0,0,0-4.71,4.71v71.78a4.71,4.71,0,0,0,4.71,4.71" transform="translate(-109.63 -31.02)"/><path class="cls-15" d="M399.4,232.67H373.79v81.2H399.4a4.71,4.71,0,0,0,4.71-4.71V237.38a4.71,4.71,0,0,0-4.71-4.71" transform="translate(-109.63 -31.02)"/><rect class="cls-16" x="237.67" y="207.91" width="53.09" height="61.3"/><rect class="cls-17" x="264.16" y="207.91" width="26.59" height="61.3"/></g></g><g class="cls-18"><g class="cls-19"><path class="cls-20" d="M1020.41,68.47c0-.21,0-.41,0-.62a35.84,35.84,0,0,1,70.78-8A23.4,23.4,0,0,1,1126,80.33c0,.53,0,1.05-.06,1.57a25.21,25.21,0,0,1-8.77,48.85h-89.91a31.52,31.52,0,0,1-6.85-62.28" transform="translate(-109.63 -31.02)"/></g></g><path class="cls-21" d="M1032.83,98.09l-3.08,9.33h-4l10.08-29.66h4.62l10.12,29.66h-4.09l-3.17-9.33Zm9.72-3-2.9-8.54c-.66-1.94-1.1-3.7-1.54-5.41H1038c-.44,1.76-.92,3.56-1.5,5.37l-2.9,8.58Z" transform="translate(-109.63 -31.02)"/><path class="cls-21" d="M1057.47,107.42l-7.53-29.66h4l3.52,15c.88,3.7,1.67,7.39,2.2,10.25h.09c.48-2.95,1.41-6.47,2.42-10.3l4-15h4l3.61,15.05c.84,3.52,1.63,7,2.07,10.17h.09c.62-3.26,1.45-6.56,2.38-10.25l3.92-15h3.92l-8.41,29.66h-4L1070,92a89.25,89.25,0,0,1-1.94-9.68H1068A92.65,92.65,0,0,1,1065.7,92l-4.22,15.45Z" transform="translate(-109.63 -31.02)"/><path class="cls-21" d="M1089.33,102.75a13.57,13.57,0,0,0,6.87,1.94c3.92,0,6.21-2.07,6.21-5.06,0-2.77-1.58-4.36-5.59-5.9C1092,92,1089,89.51,1089,85.33c0-4.62,3.83-8.05,9.59-8.05a13.47,13.47,0,0,1,6.56,1.45l-1.06,3.12a11.81,11.81,0,0,0-5.63-1.41c-4,0-5.59,2.42-5.59,4.44,0,2.77,1.8,4.14,5.9,5.72,5,1.94,7.57,4.36,7.57,8.71,0,4.58-3.39,8.54-10.39,8.54a15.32,15.32,0,0,1-7.57-1.89Z" transform="translate(-109.63 -31.02)"/><polygon class="cls-2" points="461.79 304.02 461.79 304.02 401.02 583.22 401.02 583.22 461.79 304.02"/><polyline class="cls-3" points="460.52 309.88 461.79 304.02 460.52 309.88"/><line class="cls-22" x1="457.99" y1="321.51" x2="403.56" y2="571.54"/><polyline class="cls-3" points="402.29 577.36 401.02 583.22 402.29 577.36"/><line class="cls-22" x1="404.82" y1="565.73" x2="459.25" y2="315.7"/><rect class="cls-2" x="533.45" y="306.17" height="92.99"/><polyline class="cls-3" points="533.42 312.17 533.42 306.17 533.42 312.17"/><line class="cls-23" x1="533.43" y1="323.74" x2="533.47" y2="387.37"/><polyline class="cls-3" points="533.48 393.16 533.48 399.16 533.48 393.16"/><line class="cls-23" x1="533.47" y1="381.59" x2="533.43" y2="317.95"/><polygon class="cls-2" points="580.52 302.99 580.52 302.99 670.49 583.44 670.49 583.44 580.52 302.99"/><polyline class="cls-3" points="582.36 308.7 580.52 302.99 582.36 308.7"/><line class="cls-24" x1="586.11" y1="320.4" x2="666.78" y2="571.88"/><polyline class="cls-3" points="668.66 577.73 670.49 583.44 668.66 577.73"/><line class="cls-24" x1="664.91" y1="566.03" x2="584.23" y2="314.55"/><polygon class="cls-2" points="1000.86 307.89 1000.86 307.89 957.38 584.97 957.38 584.97 1000.86 307.89"/><polyline class="cls-3" points="999.93 313.82 1000.86 307.89 999.93 313.82"/><line class="cls-25" x1="998.12" y1="325.35" x2="959.21" y2="573.27"/><polyline class="cls-3" points="958.31 579.04 957.38 584.97 958.31 579.04"/><line class="cls-25" x1="960.12" y1="567.51" x2="999.02" y2="319.59"/><polygon class="cls-2" points="868.84 293.7 868.84 293.7 942.16 588.73 942.16 588.73 868.84 293.7"/><polyline class="cls-3" points="870.29 299.52 868.84 293.7 870.29 299.52"/><line class="cls-26" x1="873.11" y1="310.86" x2="939.3" y2="577.24"/><polyline class="cls-3" points="940.71 582.91 942.16 588.73 940.71 582.91"/><line class="cls-26" x1="937.89" y1="571.58" x2="871.7" y2="305.19"/><polygon class="cls-2" points="974.19 101.97 974.19 101.97 1004.77 212.08 1004.77 212.08 974.19 101.97"/><polyline class="cls-3" points="975.79 107.75 974.19 101.97 975.79 107.75"/><line class="cls-27" x1="978.83" y1="118.7" x2="1001.64" y2="200.82"/><polyline class="cls-3" points="1003.16 206.3 1004.77 212.08 1003.16 206.3"/><line class="cls-27" x1="1000.12" y1="195.35" x2="977.31" y2="113.22"/><polygon class="cls-2" points="947.6 100.5 947.6 100.5 912.63 209.3 912.63 209.3 947.6 100.5"/><polyline class="cls-3" points="945.77 106.22 947.6 100.5 945.77 106.22"/><line class="cls-27" x1="942.29" y1="117.04" x2="916.21" y2="198.18"/><polyline class="cls-3" points="914.47 203.59 912.63 209.3 914.47 203.59"/><line class="cls-27" x1="917.94" y1="192.77" x2="944.03" y2="111.63"/><polygon class="cls-2" points="554.05 84.11 554.05 84.11 530.71 202.69 530.71 202.69 554.05 84.11"/><polyline class="cls-3" points="552.89 90 554.05 84.11 552.89 90"/><line class="cls-28" x1="550.55" y1="101.86" x2="533.03" y2="190.87"/><polyline class="cls-3" points="531.87 196.8 530.71 202.69 531.87 196.8"/><line class="cls-28" x1="534.2" y1="184.94" x2="551.72" y2="95.93"/><polygon class="cls-2" points="357.54 73.18 357.54 73.18 453.92 180.84 453.92 180.84 357.54 73.18"/><polyline class="cls-3" points="361.54 77.65 357.54 73.18 361.54 77.65"/><line class="cls-29" x1="369.57" y1="86.62" x2="445.9" y2="171.88"/><polyline class="cls-3" points="449.92 176.37 453.92 180.84 449.92 176.37"/><line class="cls-29" x1="441.88" y1="167.4" x2="365.55" y2="82.14"/><polygon class="cls-2" points="431.68 246.38 431.68 246.38 297.2 246.4 297.2 246.4 431.68 246.38"/><polyline class="cls-3" points="425.68 246.38 431.68 246.38 425.68 246.38"/><line class="cls-30" x1="414.55" y1="246.38" x2="308.77" y2="246.39"/><polyline class="cls-3" points="303.2 246.4 297.2 246.4 303.2 246.4"/><line class="cls-30" x1="314.34" y1="246.39" x2="420.12" y2="246.38"/><polygon class="cls-2" points="233.21 245.13 233.21 245.13 8.12 245.16 8.12 245.16 233.21 245.13"/><polyline class="cls-3" points="227.21 245.13 233.21 245.13 227.21 245.13"/><line class="cls-31" x1="214.68" y1="245.14" x2="20.39" y2="245.16"/><polyline class="cls-3" points="14.12 245.16 8.12 245.16 14.12 245.16"/><line class="cls-31" x1="26.65" y1="245.16" x2="220.95" y2="245.13"/><polygon class="cls-2" points="234.98 267.94 234.98 267.94 0.97 495.18 0.97 495.18 234.98 267.94"/><polyline class="cls-3" points="230.67 272.12 234.98 267.94 230.67 272.12"/><line class="cls-32" x1="222.32" y1="280.23" x2="9.45" y2="486.94"/><polyline class="cls-3" points="5.28 491 0.97 495.18 5.28 491"/><line class="cls-32" x1="13.63" y1="482.89" x2="226.5" y2="276.18"/><polygon class="cls-2" points="253.72 285.25 253.72 285.25 133.63 587.46 133.63 587.46 253.72 285.25"/><polyline class="cls-3" points="251.5 290.83 253.72 285.25 251.5 290.83"/><line class="cls-33" x1="247.22" y1="301.61" x2="137.98" y2="576.49"/><polyline class="cls-3" points="135.84 581.88 133.63 587.46 135.84 581.88"/><line class="cls-33" x1="140.13" y1="571.1" x2="249.36" y2="296.22"/><polygon class="cls-2" points="0.29 65.19 0.29 65.19 236.21 232.67 236.21 232.67 0.29 65.19"/><polyline class="cls-3" points="5.18 68.66 0.29 65.19 5.18 68.66"/><line class="cls-34" x1="15.01" y1="75.64" x2="226.4" y2="225.71"/><polyline class="cls-3" points="231.31 229.2 236.21 232.67 231.31 229.2"/><line class="cls-34" x1="221.48" y1="222.22" x2="10.1" y2="72.15"/><polygon class="cls-2" points="176.09 158.25 176.09 158.25 233.94 222.87 233.94 222.87 176.09 158.25"/><polyline class="cls-3" points="180.09 162.72 176.09 158.25 180.09 162.72"/><line class="cls-35" x1="187.22" y1="170.67" x2="226.38" y2="214.42"/><polyline class="cls-3" points="229.94 218.39 233.94 222.87 229.94 218.39"/><line class="cls-35" x1="222.82" y1="210.44" x2="183.66" y2="166.7"/><polygon class="cls-2" points="702.27 117.27 702.27 117.27 626.96 221.51 626.96 221.51 702.27 117.27"/><polyline class="cls-3" points="698.75 122.14 702.27 117.27 698.75 122.14"/><line class="cls-36" x1="691.16" y1="132.64" x2="634.26" y2="211.4"/><polyline class="cls-3" points="630.47 216.65 626.96 221.51 630.47 216.65"/><line class="cls-36" x1="638.06" y1="206.15" x2="694.96" y2="127.39"/><polygon class="cls-2" points="891.39 88.5 891.39 88.5 629.27 256.15 629.27 256.15 891.39 88.5"/><polyline class="cls-3" points="886.33 91.73 891.39 88.5 886.33 91.73"/><line class="cls-37" x1="876.25" y1="98.18" x2="639.37" y2="249.7"/><polyline class="cls-3" points="634.33 252.92 629.27 256.15 634.33 252.92"/><line class="cls-37" x1="644.41" y1="246.47" x2="881.29" y2="94.96"/><g class="cls-38"><g class="cls-38"><path class="cls-39" d="M548.7,248.16c0-.29,0-.58,0-.86,0-27.5,21.69-49.79,48.44-49.79,23.06,0,42.35,16.56,47.24,38.73a30.81,30.81,0,0,1,15.42-4.13c17.48,0,31.65,14.56,31.65,32.53,0,.73,0,1.46-.08,2.18a35,35,0,0,1,22.22,32.85c0,19.35-15.26,35-34.08,35H558c-23.53,0-42.6-19.6-42.6-43.79,0-20.92,14.27-38.41,33.35-42.75" transform="translate(-109.63 -31.02)"/><path class="cls-40" d="M754.33,283.4c0,22.24-17.54,40.26-39.18,40.26h-1.93a42.81,42.81,0,0,0-14.9-61.47c-1.23-20.73-18-37.21-38.51-37.21a37.79,37.79,0,0,0-11.06,1.66A58,58,0,0,0,643.37,216a44.1,44.1,0,0,1,35.75-18.47c24.6,0,44.55,20.5,44.55,45.79,0,.27,0,.53,0,.8,17.55,4,30.67,20.08,30.67,39.31" transform="translate(-109.63 -31.02)"/></g></g><g class="cls-41"><g class="cls-42"><g class="cls-41"><path class="cls-21" d="M1140.37,298.54l-17.21-17.35,4.85-4.81a5.29,5.29,0,1,0-3.79-3.69l-4.79,4.75-17.21-17.35a27.08,27.08,0,0,0-.23,38.22L1088.59,336l32.59.14L1110,303.93A27.09,27.09,0,0,0,1140.37,298.54Z" transform="translate(-109.63 -31.02)"/></g></g><g class="cls-41"><path class="cls-21" d="M1151.75,248.38A34.47,34.47,0,0,0,1127,238.2v5.28A29.75,29.75,0,0,1,1156.81,273h5.28A34.82,34.82,0,0,0,1151.75,248.38Z" transform="translate(-109.63 -31.02)"/><path class="cls-21" d="M1127,252.3v5.28a15.66,15.66,0,0,1,15.72,15.51h5.3a21,21,0,0,0-21-20.79Z" transform="translate(-109.63 -31.02)"/></g></g><g class="cls-43"><g class="cls-44"><g class="cls-43"><path class="cls-21" d="M1010.63,294.92l-17.21-17.35,4.85-4.81a5.29,5.29,0,1,0-3.79-3.69l-4.79,4.75-17.21-17.35a27.08,27.08,0,0,0-.23,38.22l-13.41,37.68,32.59.14-11.16-32.19A27.09,27.09,0,0,0,1010.63,294.92Z" transform="translate(-109.63 -31.02)"/></g></g><g class="cls-43"><path class="cls-21" d="M1022,244.75a34.47,34.47,0,0,0-24.79-10.18v5.28a29.75,29.75,0,0,1,29.85,29.53h5.28A34.82,34.82,0,0,0,1022,244.75Z" transform="translate(-109.63 -31.02)"/><path class="cls-21" d="M997.21,248.68V254a15.66,15.66,0,0,1,15.72,15.51h5.3a21,21,0,0,0-21-20.79Z" transform="translate(-109.63 -31.02)"/></g></g></svg>