<svg id="Layer_1" data-name="Layer 1" xmlns="http://www.w3.org/2000/svg" xmlns:xlink="http://www.w3.org/1999/xlink" viewBox="0 0 1052.32 587.79"><defs><style>.cls-1,.cls-22,.cls-23,.cls-24,.cls-25,.cls-26,.cls-27,.cls-28,.cls-29,.cls-3,.cls-30,.cls-31,.cls-32,.cls-33,.cls-34,.cls-35,.cls-36,.cls-37,.cls-4,.cls-5{fill:none;}.cls-2{fill:#0a9dd6;}.cls-22,.cls-23,.cls-24,.cls-25,.cls-26,.cls-27,.cls-28,.cls-29,.cls-3,.cls-30,.cls-31,.cls-32,.cls-33,.cls-34,.cls-35,.cls-36,.cls-37,.cls-4,.cls-5{stroke:#58595b;stroke-miterlimit:10;stroke-width:0.5px;}.cls-4{stroke-dasharray:6.11 5.09;}.cls-5{stroke-dasharray:5.89 4.91;}.cls-6{clip-path:url(#clip-path);}.cls-7{fill:gray;}.cls-8{fill:#999;}.cls-9{fill:#ccc;}.cls-10{fill:#1a1a1a;}.cls-11{fill:#4d4d4d;}.cls-12{clip-path:url(#clip-path-3);}.cls-13{clip-path:url(#clip-path-4);}.cls-14{fill:#333;}.cls-15{fill:#020202;}.cls-16{fill:#a7a9ac;}.cls-17{fill:#808285;}.cls-18{clip-path:url(#clip-path-5);}.cls-19{clip-path:url(#clip-path-6);}.cls-20{fill:#d1d3d4;}.cls-21{fill:#202529;}.cls-22{stroke-dasharray:5.99 5;}.cls-23{stroke-dasharray:6.37 5.3;}.cls-24{stroke-dasharray:5.95 4.96;}.cls-25{stroke-dasharray:5.88 4.9;}.cls-26{stroke-dasharray:5.92 4.93;}.cls-27{stroke-dasharray:6.25 5.21;}.cls-28{stroke-dasharray:5.99 4.99;}.cls-29{stroke-dasharray:6.07 5.05;}.cls-30{stroke-dasharray:6.12 5.1;}.cls-31{stroke-dasharray:6.14 5.12;}.cls-32{stroke-dasharray:5.93 4.94;}.cls-33{stroke-dasharray:5.91 4.93;}.cls-34{stroke-dasharray:6.07 5.06;}.cls-35{stroke-dasharray:5.91 4.92;}.cls-36{stroke-dasharray:5.84 4.87;}.cls-37{stroke-dasharray:6.06 5.05;}.cls-38{clip-path:url(#clip-path-7);}.cls-39{fill:#bcbec0;}.cls-40{clip-path:url(#clip-path-9);}.cls-41{clip-path:url(#clip-path-10);}.cls-42{clip-path:url(#clip-path-13);}.cls-43{clip-path:url(#clip-path-14);}</style><clipPath id="clip-path" transform="translate(-109.77 -32.02)"><rect class="cls-1" x="783.3" y="78.14" width="106.4" height="87.08"/></clipPath><clipPath id="clip-path-3" transform="translate(-109.77 -32.02)"><rect class="cls-1" x="343.56" y="232.67" width="60.55" height="80.98"/></clipPath><clipPath id="clip-path-4" transform="translate(-109.77 -32.02)"><rect class="cls-1" x="343.56" y="232.67" width="60.55" height="80.98"/></clipPath><clipPath id="clip-path-5" transform="translate(-109.77 -32.02)"><rect class="cls-1" x="993" y="31.33" width="154.18" height="112.07"/></clipPath><clipPath id="clip-path-6" transform="translate(-109.77 -32.02)"><rect class="cls-1" x="994.5" y="31.19" width="304.11" height="170.42"/></clipPath><clipPath id="clip-path-7" transform="translate(-109.77 -32.02)"><rect class="cls-1" x="515.35" y="196.94" width="239.39" height="138.44"/></clipPath><clipPath id="clip-path-9" transform="translate(-109.77 -32.02)"><rect class="cls-1" x="1088.75" y="237.84" width="73.48" height="98.66"/></clipPath><clipPath id="clip-path-10" transform="translate(-109.77 -32.02)"><rect class="cls-1" x="1088.77" y="238.2" width="73.46" height="98.25"/></clipPath><clipPath id="clip-path-13" transform="translate(-109.77 -32.02)"><rect class="cls-1" x="959" y="234.22" width="73.48" height="98.66"/></clipPath><clipPath id="clip-path-14" transform="translate(-109.77 -32.02)"><rect class="cls-1" x="959.03" y="234.57" width="73.46" height="98.25"/></clipPath></defs><title>diagram3</title><polygon class="cls-2" points="766.09 411.18 766.09 411.18 625.85 282.68 625.85 282.68 766.09 411.18"/><polyline class="cls-3" points="763.88 409.15 766.09 411.18 763.88 409.15"/><line class="cls-4" x1="760.13" y1="405.71" x2="629.94" y2="286.43"/><polyline class="cls-3" points="628.06 284.71 625.85 282.68 628.06 284.71"/><line class="cls-4" x1="631.81" y1="288.15" x2="762" y2="407.43"/><polygon class="cls-2" points="421.4 294.48 421.4 294.48 305.09 407.42 305.09 407.42 421.4 294.48"/><polyline class="cls-3" points="419.25 296.57 421.4 294.48 419.25 296.57"/><line class="cls-5" x1="415.73" y1="299.99" x2="309" y2="403.62"/><polyline class="cls-3" points="307.24 405.33 305.09 407.42 307.24 405.33"/><line class="cls-5" x1="310.77" y1="401.91" x2="417.49" y2="298.28"/><g class="cls-6"><g class="cls-6"><polygon class="cls-7" points="736.03 113.54 738.25 130.44 714.93 130.44 717.15 113.54 736.03 113.54"/><path class="cls-8" d="M813.74,135.52l-6.08,10h-21.4a3,3,0,0,1-3-3v-7.08Z" transform="translate(-109.77 -32.02)"/><path class="cls-9" d="M889.42,135.52v7.08a3,3,0,0,1-3,3H807.66l6.08-10Z" transform="translate(-109.77 -32.02)"/><path class="cls-10" d="M848.38,78.25l-34.64,57.26H783.3V81.21a3,3,0,0,1,3-3Z" transform="translate(-109.77 -32.02)"/><path class="cls-11" d="M889.42,81.21v54.3H813.74l34.64-57.26h38.07A3,3,0,0,1,889.42,81.21Z" transform="translate(-109.77 -32.02)"/><rect class="cls-9" x="706.03" y="127.99" width="41.13" height="4.91"/></g></g><g class="cls-12"><g class="cls-13"><path class="cls-14" d="M348.28,313.87H399.4a4.71,4.71,0,0,0,4.71-4.71V237.38a4.71,4.71,0,0,0-4.71-4.71H348.28a4.71,4.71,0,0,0-4.71,4.71v71.78a4.71,4.71,0,0,0,4.71,4.71" transform="translate(-109.77 -32.02)"/><path class="cls-15" d="M399.4,232.67H373.79v81.2H399.4a4.71,4.71,0,0,0,4.71-4.71V237.38a4.71,4.71,0,0,0-4.71-4.71" transform="translate(-109.77 -32.02)"/><rect class="cls-16" x="237.52" y="206.91" width="53.09" height="61.3"/><rect class="cls-17" x="264.02" y="206.91" width="26.59" height="61.3"/></g></g><g class="cls-18"><g class="cls-19"><path class="cls-20" d="M1020.41,68.47c0-.21,0-.41,0-.62a35.84,35.84,0,0,1,70.78-8A23.4,23.4,0,0,1,1126,80.33c0,.53,0,1.05-.06,1.57a25.21,25.21,0,0,1-8.77,48.85h-89.91a31.52,31.52,0,0,1-6.85-62.28" transform="translate(-109.77 -32.02)"/></g></g><path class="cls-21" d="M1032.83,98.09l-3.08,9.33h-4l10.08-29.66h4.62l10.12,29.66h-4.09l-3.17-9.33Zm9.72-3-2.9-8.54c-.66-1.94-1.1-3.7-1.54-5.41H1038c-.44,1.76-.92,3.56-1.5,5.37l-2.9,8.58Z" transform="translate(-109.77 -32.02)"/><path class="cls-21" d="M1057.47,107.42l-7.53-29.66h4l3.52,15c.88,3.7,1.67,7.39,2.2,10.25h.09c.48-2.95,1.41-6.47,2.42-10.3l4-15h4l3.61,15.05c.84,3.52,1.63,7,2.07,10.17h.09c.62-3.26,1.45-6.56,2.38-10.25l3.92-15h3.92l-8.41,29.66h-4L1070,92a89.25,89.25,0,0,1-1.94-9.68H1068A92.65,92.65,0,0,1,1065.7,92l-4.22,15.45Z" transform="translate(-109.77 -32.02)"/><path class="cls-21" d="M1089.33,102.75a13.57,13.57,0,0,0,6.87,1.94c3.92,0,6.21-2.07,6.21-5.06,0-2.77-1.58-4.36-5.59-5.9C1092,92,1089,89.51,1089,85.33c0-4.62,3.83-8.05,9.59-8.05a13.47,13.47,0,0,1,6.56,1.45l-1.06,3.12a11.81,11.81,0,0,0-5.63-1.41c-4,0-5.59,2.42-5.59,4.44,0,2.77,1.8,4.14,5.9,5.72,5,1.94,7.57,4.36,7.57,8.71,0,4.58-3.39,8.54-10.39,8.54a15.32,15.32,0,0,1-7.57-1.89Z" transform="translate(-109.77 -32.02)"/><polygon class="cls-2" points="461.65 303.02 461.65 303.02 400.87 582.22 400.87 582.22 461.65 303.02"/><polyline class="cls-3" points="461.01 305.95 461.65 303.02 461.01 305.95"/><line class="cls-22" x1="459.95" y1="310.83" x2="402.04" y2="576.85"/><polyline class="cls-3" points="401.51 579.29 400.87 582.22 401.51 579.29"/><line class="cls-22" x1="402.57" y1="574.41" x2="460.48" y2="308.39"/><rect class="cls-2" x="533.3" y="305.17" height="92.99"/><polyline class="cls-3" points="533.28 308.17 533.28 305.17 533.28 308.17"/><line class="cls-23" x1="533.28" y1="313.47" x2="533.33" y2="392.5"/><polyline class="cls-3" points="533.33 395.16 533.33 398.16 533.33 395.16"/><line class="cls-23" x1="533.33" y1="389.85" x2="533.28" y2="310.82"/><polygon class="cls-2" points="580.38 301.99 580.38 301.99 670.35 582.44 670.35 582.44 580.38 301.99"/><polyline class="cls-3" points="581.29 304.85 580.38 301.99 581.29 304.85"/><line class="cls-24" x1="582.81" y1="309.57" x2="668.67" y2="577.23"/><polyline class="cls-3" points="669.43 579.59 670.35 582.44 669.43 579.59"/><line class="cls-24" x1="667.92" y1="574.87" x2="582.05" y2="307.21"/><polygon class="cls-2" points="1000.71 306.89 1000.71 306.89 957.24 583.97 957.24 583.97 1000.71 306.89"/><polyline class="cls-3" points="1000.25 309.86 1000.71 306.89 1000.25 309.86"/><line class="cls-25" x1="999.49" y1="314.7" x2="958.08" y2="578.58"/><polyline class="cls-3" points="957.7 581 957.24 583.97 957.7 581"/><line class="cls-25" x1="958.46" y1="576.16" x2="999.87" y2="312.28"/><polygon class="cls-2" points="868.7 292.7 868.7 292.7 942.01 587.73 942.01 587.73 868.7 292.7"/><polyline class="cls-3" points="869.42 295.61 868.7 292.7 869.42 295.61"/><line class="cls-26" x1="870.61" y1="300.4" x2="940.69" y2="582.43"/><polyline class="cls-3" points="941.29 584.82 942.01 587.73 941.29 584.82"/><line class="cls-26" x1="940.1" y1="580.03" x2="870.02" y2="298"/><polygon class="cls-2" points="974.04 100.97 974.04 100.97 1004.62 211.08 1004.62 211.08 974.04 100.97"/><polyline class="cls-3" points="974.85 103.86 974.04 100.97 974.85 103.86"/><line class="cls-27" x1="976.24" y1="108.87" x2="1003.12" y2="205.68"/><polyline class="cls-3" points="1003.82 208.19 1004.62 211.08 1003.82 208.19"/><line class="cls-27" x1="1002.43" y1="203.17" x2="975.54" y2="106.37"/><polygon class="cls-2" points="947.46 99.5 947.46 99.5 912.49 208.3 912.49 208.3 947.46 99.5"/><polyline class="cls-3" points="946.54 102.36 947.46 99.5 946.54 102.36"/><line class="cls-27" x1="944.95" y1="107.32" x2="914.2" y2="202.97"/><polyline class="cls-3" points="913.4 205.45 912.49 208.3 913.4 205.45"/><line class="cls-27" x1="915" y1="200.49" x2="945.74" y2="104.84"/><polygon class="cls-2" points="553.9 83.11 553.9 83.11 530.56 201.69 530.56 201.69 553.9 83.11"/><polyline class="cls-3" points="553.32 86.05 553.9 83.11 553.32 86.05"/><line class="cls-28" x1="552.36" y1="90.95" x2="531.62" y2="196.3"/><polyline class="cls-3" points="531.14 198.75 530.56 201.69 531.14 198.75"/><line class="cls-28" x1="532.11" y1="193.85" x2="552.84" y2="88.5"/><polygon class="cls-2" points="357.39 72.18 357.39 72.18 453.77 179.84 453.77 179.84 357.39 72.18"/><polyline class="cls-3" points="359.39 74.41 357.39 72.18 359.39 74.41"/><line class="cls-29" x1="362.76" y1="78.18" x2="450.09" y2="175.72"/><polyline class="cls-3" points="451.77 177.61 453.77 179.84 451.77 177.61"/><line class="cls-29" x1="448.4" y1="173.84" x2="361.08" y2="76.3"/><polygon class="cls-2" points="431.54 245.38 431.54 245.38 297.06 245.4 297.06 245.4 431.54 245.38"/><polyline class="cls-3" points="428.54 245.38 431.54 245.38 428.54 245.38"/><line class="cls-30" x1="423.44" y1="245.38" x2="302.61" y2="245.4"/><polyline class="cls-3" points="300.06 245.4 297.06 245.4 300.06 245.4"/><line class="cls-30" x1="305.16" y1="245.4" x2="425.99" y2="245.38"/><polygon class="cls-2" points="233.07 244.13 233.07 244.13 7.97 244.16 7.97 244.16 233.07 244.13"/><polyline class="cls-3" points="230.07 244.13 233.07 244.13 230.07 244.13"/><line class="cls-31" x1="224.95" y1="244.13" x2="13.53" y2="244.16"/><polyline class="cls-3" points="10.97 244.16 7.97 244.16 10.97 244.16"/><line class="cls-31" x1="16.09" y1="244.16" x2="227.51" y2="244.13"/><polygon class="cls-2" points="234.83 266.94 234.83 266.94 0.83 494.18 0.83 494.18 234.83 266.94"/><polyline class="cls-3" points="232.68 269.03 234.83 266.94 232.68 269.03"/><line class="cls-32" x1="229.13" y1="272.48" x2="4.75" y2="490.36"/><polyline class="cls-3" points="2.98 492.09 0.83 494.18 2.98 492.09"/><line class="cls-32" x1="6.53" y1="488.64" x2="230.91" y2="270.75"/><polygon class="cls-2" points="253.57 284.25 253.57 284.25 133.48 586.46 133.48 586.46 253.57 284.25"/><polyline class="cls-3" points="252.47 287.04 253.57 284.25 252.47 287.04"/><line class="cls-33" x1="250.65" y1="291.62" x2="135.5" y2="581.38"/><polyline class="cls-3" points="134.59 583.67 133.48 586.46 134.59 583.67"/><line class="cls-33" x1="136.41" y1="579.09" x2="251.56" y2="289.33"/><polygon class="cls-2" points="0.14 64.19 0.14 64.19 236.06 231.67 236.06 231.67 0.14 64.19"/><polyline class="cls-3" points="2.59 65.92 0.14 64.19 2.59 65.92"/><line class="cls-34" x1="6.72" y1="68.85" x2="231.55" y2="228.47"/><polyline class="cls-3" points="233.62 229.94 236.06 231.67 233.62 229.94"/><line class="cls-34" x1="229.49" y1="227.01" x2="4.65" y2="67.39"/><polygon class="cls-2" points="175.95 157.25 175.95 157.25 233.79 221.87 233.79 221.87 175.95 157.25"/><polyline class="cls-3" points="177.95 159.49 175.95 157.25 177.95 159.49"/><line class="cls-35" x1="181.23" y1="163.15" x2="230.15" y2="217.8"/><polyline class="cls-3" points="231.79 219.63 233.79 221.87 231.79 219.63"/><line class="cls-35" x1="228.51" y1="215.96" x2="179.59" y2="161.32"/><polygon class="cls-2" points="702.12 116.27 702.12 116.27 626.81 220.51 626.81 220.51 702.12 116.27"/><polyline class="cls-3" points="700.36 118.71 702.12 116.27 700.36 118.71"/><line class="cls-36" x1="697.52" y1="122.65" x2="629.99" y2="216.11"/><polyline class="cls-3" points="628.57 218.08 626.81 220.51 628.57 218.08"/><line class="cls-36" x1="631.42" y1="214.14" x2="698.94" y2="120.68"/><polygon class="cls-2" points="891.24 87.5 891.24 87.5 629.13 255.15 629.13 255.15 891.24 87.5"/><polyline class="cls-3" points="888.72 89.12 891.24 87.5 888.72 89.12"/><line class="cls-37" x1="884.46" y1="91.84" x2="633.79" y2="252.18"/><polyline class="cls-3" points="631.66 253.54 629.13 255.15 631.66 253.54"/><line class="cls-37" x1="635.91" y1="250.82" x2="886.59" y2="90.48"/><g class="cls-38"><g class="cls-38"><path class="cls-20" d="M548.7,248.16c0-.29,0-.58,0-.86,0-27.5,21.69-49.79,48.44-49.79,23.06,0,42.35,16.56,47.24,38.73a30.81,30.81,0,0,1,15.42-4.13c17.48,0,31.65,14.56,31.65,32.53,0,.73,0,1.46-.08,2.18a35,35,0,0,1,22.22,32.85c0,19.35-15.26,35-34.08,35H558c-23.53,0-42.6-19.6-42.6-43.79,0-20.92,14.27-38.41,33.35-42.75" transform="translate(-109.77 -32.02)"/><path class="cls-39" d="M754.33,283.4c0,22.24-17.54,40.26-39.18,40.26h-1.93a42.81,42.81,0,0,0-14.9-61.47c-1.23-20.73-18-37.21-38.51-37.21a37.79,37.79,0,0,0-11.06,1.66A58,58,0,0,0,643.37,216a44.1,44.1,0,0,1,35.75-18.47c24.6,0,44.55,20.5,44.55,45.79,0,.27,0,.53,0,.8,17.55,4,30.67,20.08,30.67,39.31" transform="translate(-109.77 -32.02)"/></g></g><g class="cls-40"><g class="cls-41"><g class="cls-40"><path class="cls-21" d="M1140.37,298.54l-17.21-17.35,4.85-4.81a5.29,5.29,0,1,0-3.79-3.69l-4.79,4.75-17.21-17.35a27.08,27.08,0,0,0-.23,38.22L1088.59,336l32.59.14L1110,303.93A27.09,27.09,0,0,0,1140.37,298.54Z" transform="translate(-109.77 -32.02)"/></g></g><g class="cls-40"><path class="cls-21" d="M1151.75,248.38A34.47,34.47,0,0,0,1127,238.2v5.28A29.75,29.75,0,0,1,1156.81,273h5.28A34.82,34.82,0,0,0,1151.75,248.38Z" transform="translate(-109.77 -32.02)"/><path class="cls-21" d="M1127,252.3v5.28a15.66,15.66,0,0,1,15.72,15.51h5.3a21,21,0,0,0-21-20.79Z" transform="translate(-109.77 -32.02)"/></g></g><g class="cls-42"><g class="cls-43"><g class="cls-42"><path class="cls-21" d="M1010.63,294.92l-17.21-17.35,4.85-4.81a5.29,5.29,0,1,0-3.79-3.69l-4.79,4.75-17.21-17.35a27.08,27.08,0,0,0-.23,38.22l-13.41,37.68,32.59.14-11.16-32.19A27.09,27.09,0,0,0,1010.63,294.92Z" transform="translate(-109.77 -32.02)"/></g></g><g class="cls-42"><path class="cls-21" d="M1022,244.75a34.47,34.47,0,0,0-24.79-10.18v5.28a29.75,29.75,0,0,1,29.85,29.53h5.28A34.82,34.82,0,0,0,1022,244.75Z" transform="translate(-109.77 -32.02)"/><path class="cls-21" d="M997.21,248.68V254a15.66,15.66,0,0,1,15.72,15.51h5.3a21,21,0,0,0-21-20.79Z" transform="translate(-109.77 -32.02)"/></g></g></svg>