<svg id="Layer_1" data-name="Layer 1" xmlns="http://www.w3.org/2000/svg" xmlns:xlink="http://www.w3.org/1999/xlink" viewBox="0 0 400 250"><defs><style>.cls-1{fill:none;}.cls-2{fill:#06c5e0;}.cls-3{clip-path:url(#clip-path);}.cls-4{clip-path:url(#clip-path-2);}.cls-5{fill:#e74424;}.cls-6{fill:#f7f1e6;}.cls-7{clip-path:url(#clip-path-5);}.cls-8{fill:#333;}.cls-9{fill:#020202;}.cls-10{fill:#a68bc9;}.cls-11{fill:#9165c1;}.cls-12{clip-path:url(#clip-path-7);}.cls-13{clip-path:url(#clip-path-8);}.cls-14{fill:#fff;}.cls-15{clip-path:url(#clip-path-9);}.cls-16{clip-path:url(#clip-path-10);}.cls-17{clip-path:url(#clip-path-11);}.cls-18{clip-path:url(#clip-path-12);}.cls-19{clip-path:url(#clip-path-13);}.cls-20{clip-path:url(#clip-path-14);}</style><clipPath id="clip-path"><rect class="cls-1" x="264.79" y="132" width="119.21" height="104"/></clipPath><clipPath id="clip-path-2"><rect class="cls-1" x="264.79" y="132" width="119.2" height="103.98"/></clipPath><clipPath id="clip-path-5"><rect class="cls-1" x="21.28" y="13.5" width="97.28" height="130.11"/></clipPath><clipPath id="clip-path-7"><rect class="cls-1" x="82.87" y="151.19" width="22.67" height="31.02" transform="matrix(0.83, -0.55, 0.55, 0.83, -76.67, 80.29)"/></clipPath><clipPath id="clip-path-8"><rect class="cls-1" x="83.69" y="151.12" width="21.47" height="30.95" transform="translate(-76.57 80.4) rotate(-33.7)"/></clipPath><clipPath id="clip-path-9"><rect class="cls-1" x="81.47" y="147.29" width="22.67" height="31.02" transform="translate(-74.74 78.86) rotate(-33.7)"/></clipPath><clipPath id="clip-path-10"><rect class="cls-1" x="81.83" y="147.44" width="21.47" height="30.95" transform="translate(-74.84 78.75) rotate(-33.7)"/></clipPath><clipPath id="clip-path-11"><rect class="cls-1" x="137.5" y="73.32" width="31.02" height="22.67"/></clipPath><clipPath id="clip-path-12"><rect class="cls-1" x="137.57" y="73.66" width="30.95" height="21.47"/></clipPath><clipPath id="clip-path-13"><rect class="cls-1" x="133.48" y="72.32" width="31.02" height="22.67"/></clipPath><clipPath id="clip-path-14"><rect class="cls-1" x="133.48" y="73.18" width="30.95" height="21.47"/></clipPath></defs><title>medical</title><rect class="cls-2" width="400" height="250"/><g class="cls-3"><g class="cls-4"><g class="cls-3"><path class="cls-5" d="M309.07,154.89a2.26,2.26,0,0,1,4.39.57l3.62,42.27,6.77-24.42a2.26,2.26,0,0,1,4.39.1L332,189.78l6.44-27.06a2.26,2.26,0,0,1,4.44.21l4.81,34.27,2.16-7a2.26,2.26,0,0,1,2.16-1.59h24.22c3.55-5.35,6.08-10.68,6.93-15.81,1.85-11.34,0-20.7-5.37-27.8S364,133.76,352.39,132.51a30.91,30.91,0,0,0-3.15-.17,37,37,0,0,0-22.93,8.25,36.94,36.94,0,0,0-22.91-8.25,31.05,31.05,0,0,0-3.16.17c-11.64,1.25-20,5.34-25.41,12.51s-7.22,16.46-5.37,27.8c.86,5.21,3.45,10.62,7.09,16.06h20.32Z"/></g></g><g class="cls-3"><path class="cls-5" d="M349,208.22a2.26,2.26,0,0,1-4.41-.36l-4.55-32.43-5.9,24.79A2.26,2.26,0,0,1,332,202h0a2.26,2.26,0,0,1-2.2-1.76l-3.94-17.09-7.75,28a2.26,2.26,0,0,1-2.18,1.66h-.21a2.27,2.27,0,0,1-2-2.06l-3.81-44.47-9.23,25.73a2.26,2.26,0,0,1-2.13,1.5H279.81c7.53,9.81,17.84,19.52,26.89,28,0,0,7.7,7.73,10,9.72,1.75,1.49,5.51,4.5,9.61,4.5s7.86-3,9.6-4.5c2.31-2,10-9.72,10-9.72,9.12-8.58,19.53-18.38,27.08-28.27H353.69Z"/><path class="cls-6" d="M381.16,188.64H352a2.27,2.27,0,0,0-2.16,1.59l-2.16,7-4.81-34.27a2.26,2.26,0,0,0-4.45-.21L332,189.78l-3.77-16.37a2.26,2.26,0,0,0-4.39-.1l-6.77,24.42-3.62-42.27a2.26,2.26,0,0,0-4.39-.57l-12.2,34H267.05a2.26,2.26,0,1,0,0,4.53h31.41a2.26,2.26,0,0,0,2.13-1.5l9.23-25.73,3.81,44.47a2.27,2.27,0,0,0,2,2.06h.21a2.26,2.26,0,0,0,2.18-1.66l7.75-28,3.94,17.09A2.26,2.26,0,0,0,332,202h0a2.26,2.26,0,0,0,2.2-1.74l5.9-24.79,4.55,32.43a2.26,2.26,0,0,0,4.41.36l4.66-15.05h27.48a2.26,2.26,0,1,0,0-4.53Z"/></g></g><g class="cls-7"><g class="cls-7"><path class="cls-8" d="M28.85,144H111a7.57,7.57,0,0,0,7.57-7.57V21.07A7.57,7.57,0,0,0,111,13.5H28.85a7.57,7.57,0,0,0-7.57,7.57V136.39A7.57,7.57,0,0,0,28.85,144"/><path class="cls-9" d="M111,13.5H69.85V144H111a7.57,7.57,0,0,0,7.57-7.57V21.07A7.57,7.57,0,0,0,111,13.5"/><rect class="cls-10" x="27.28" y="23.56" width="85.3" height="98.48"/><rect class="cls-11" x="69.84" y="23.56" width="42.73" height="98.48"/></g></g><g class="cls-12"><g class="cls-13"><path class="cls-14" d="M105.7,164.71a1.07,1.07,0,0,0-2.09-.43l-2.13,10.65L87.43,153.86a1.06,1.06,0,0,0-1.47-.29,1.07,1.07,0,0,0-.31,1.48l14.06,21.08L89.07,174a1.09,1.09,0,0,0-1.26.84,1.06,1.06,0,0,0,.84,1.26l13.17,2.63a1,1,0,0,0,1.24-.83Z"/></g></g><g class="cls-15"><g class="cls-16"><path class="cls-14" d="M81.3,164.79a1.07,1.07,0,0,0,2.09.43l2.13-10.65,14.06,21.08a1.06,1.06,0,0,0,1.47.29,1.07,1.07,0,0,0,.31-1.48L87.29,153.38l10.64,2.14a1.09,1.09,0,0,0,1.26-.84,1.06,1.06,0,0,0-.84-1.26l-13.17-2.63a1,1,0,0,0-1.24.83Z"/></g></g><g class="cls-17"><g class="cls-18"><path class="cls-14" d="M157.74,74a1.07,1.07,0,1,0-1.52,1.5l7.68,7.68H138.56a1.06,1.06,0,0,0-1.06,1.06,1.07,1.07,0,0,0,1.06,1.08h25.34L156.22,93a1.09,1.09,0,0,0,0,1.52,1.06,1.06,0,0,0,1.52,0l9.5-9.5a1,1,0,0,0,0-1.5Z"/></g></g><g class="cls-19"><g class="cls-20"><path class="cls-14" d="M144.26,94.33a1.07,1.07,0,0,0,1.52-1.5l-7.68-7.68h25.34a1.06,1.06,0,0,0,1.06-1.06A1.07,1.07,0,0,0,163.44,83H138.09l7.68-7.66a1.09,1.09,0,0,0,0-1.52,1.06,1.06,0,0,0-1.52,0l-9.5,9.5a1,1,0,0,0,0,1.5Z"/></g></g></svg>