<svg id="Layer_1" data-name="Layer 1" xmlns="http://www.w3.org/2000/svg" xmlns:xlink="http://www.w3.org/1999/xlink" viewBox="0 0 400 250"><defs><style>.cls-1{fill:none;}.cls-2{fill:#06c5e0;}.cls-3{clip-path:url(#clip-path);}.cls-4{clip-path:url(#clip-path-2);}.cls-5{fill:#bec8dc;}.cls-6{fill:#464655;}.cls-7{fill:#a967d3;}.cls-8{fill:#afbbd0;}.cls-9{fill:#96a5b9;}.cls-10{fill:#707384;}.cls-11{fill:#ffb969;}.cls-12{fill:#ffcd73;}.cls-13{fill:#ffa765;}.cls-14{clip-path:url(#clip-path-6);}.cls-15{clip-path:url(#clip-path-7);}.cls-16{fill:#fff;}.cls-17{clip-path:url(#clip-path-8);}.cls-18{clip-path:url(#clip-path-9);}.cls-19{clip-path:url(#clip-path-10);}.cls-20{clip-path:url(#clip-path-11);}.cls-21{clip-path:url(#clip-path-12);}.cls-22{clip-path:url(#clip-path-13);}</style><clipPath id="clip-path"><rect class="cls-1" x="240.83" y="16.5" width="139.17" height="120.5"/></clipPath><clipPath id="clip-path-2"><rect class="cls-1" x="240.85" y="16.5" width="139.15" height="120.48"/></clipPath><clipPath id="clip-path-6"><rect class="cls-1" x="64.17" y="117.17" width="22.67" height="31.02"/></clipPath><clipPath id="clip-path-7"><rect class="cls-1" x="65.02" y="117.24" width="21.47" height="30.95"/></clipPath><clipPath id="clip-path-8"><rect class="cls-1" x="65.17" y="113.15" width="22.67" height="31.02"/></clipPath><clipPath id="clip-path-9"><rect class="cls-1" x="65.51" y="113.15" width="21.47" height="30.95"/></clipPath><clipPath id="clip-path-10"><rect class="cls-1" x="186.67" y="114.18" width="22.67" height="31.02" transform="translate(-36.62 98.47) rotate(-25.65)"/></clipPath><clipPath id="clip-path-11"><rect class="cls-1" x="187.51" y="114.13" width="21.47" height="30.95" transform="translate(-36.56 98.57) rotate(-25.65)"/></clipPath><clipPath id="clip-path-12"><rect class="cls-1" x="185.83" y="110.12" width="22.67" height="31.02" transform="translate(-34.95 97.71) rotate(-25.65)"/></clipPath><clipPath id="clip-path-13"><rect class="cls-1" x="186.18" y="110.23" width="21.47" height="30.95" transform="translate(-35.01 97.61) rotate(-25.65)"/></clipPath></defs><title>office-desk</title><rect class="cls-2" width="400" height="250"/><g class="cls-3"><g class="cls-4"><path class="cls-5" d="M288.77,95.91a2.4,2.4,0,1,1,2.4-2.4,2.4,2.4,0,0,1-2.4,2.4m43.15,2.4a4.79,4.79,0,0,0,4.79-4.79V88.72H240.83v4.79a4.79,4.79,0,0,0,4.79,4.79Z"/><path class="cls-6" d="M336.72,48h-4.79v36h-86.3V36H325l.53-4.79h-79.9A4.79,4.79,0,0,0,240.83,36V88.72h95.88Z"/></g><g class="cls-3"><path class="cls-7" d="M320.61,48a2.4,2.4,0,0,1-2.33-3l.75-3,.05-.19.07-.24a4.79,4.79,0,0,1,4.52-3.21h1.05L325,36H245.63V83.92h86.3V48Z"/><polygon class="cls-8" points="301.96 103.1 275.59 103.1 274.39 107.89 303.16 107.89 301.96 103.1"/><path class="cls-5" d="M305.55,110.29a2.4,2.4,0,0,0-2.4-2.4H274.39a2.4,2.4,0,0,0,0,4.79h28.77a2.4,2.4,0,0,0,2.4-2.4"/><polygon class="cls-9" points="300.76 98.31 276.79 98.31 275.59 103.1 301.96 103.1 300.76 98.31"/></g><g class="cls-4"><path class="cls-9" d="M291.17,93.51a2.4,2.4,0,1,1-2.4-2.4,2.4,2.4,0,0,1,2.4,2.4"/><path class="cls-10" d="M377.47,112.69H243.23a2.4,2.4,0,0,0-2.4,2.4v2.4a2.4,2.4,0,0,0,2.4,2.4H377.47a2.4,2.4,0,0,0,2.4-2.4v-2.4a2.4,2.4,0,0,0-2.4-2.4"/></g><g class="cls-3"><path class="cls-10" d="M248,134.26a2.4,2.4,0,0,0,2.4,2.4h4.79a2.4,2.4,0,0,0,2.4-2.4v-9.59H248Z"/><rect class="cls-6" x="248.02" y="119.88" width="9.59" height="4.79"/><path class="cls-10" d="M363.08,134.26a2.4,2.4,0,0,0,2.4,2.4h4.79a2.4,2.4,0,0,0,2.4-2.4v-9.59h-9.59v9.59Z"/><rect class="cls-6" x="363.08" y="119.88" width="9.59" height="4.79"/><path class="cls-6" d="M363.08,38.38a4.78,4.78,0,0,1-1-.1l9.36,28.08A4.79,4.79,0,0,1,376,64.84l-9.36-28.08a4.78,4.78,0,0,1-3.59,1.62"/><path class="cls-6" d="M358.94,36a4.77,4.77,0,0,1,0-4.79h-11l.53,4.79Z"/><path class="cls-6" d="M371.21,72.38,357.77,103.1h1.57a4.78,4.78,0,0,1,3.15,1.18l13.11-30a4.66,4.66,0,0,1-.53,0,4.79,4.79,0,0,1-3.86-2"/><path class="cls-11" d="M333.54,106.31c0,.08-.05.16-.07.23,0-.08,0-.16.07-.23"/><path class="cls-11" d="M357.77,103.1H350a4.79,4.79,0,0,0-4.65,3.63l-1.49,6h21.57l-1.49-6a4.81,4.81,0,0,0-4.65-3.63Z"/><path class="cls-11" d="M355.15,45l-.74-3a4.8,4.8,0,0,0-4.65-3.63H335A4.8,4.8,0,0,0,330.34,42l-.74,3a2.4,2.4,0,0,0,2.33,3h20.9a2.4,2.4,0,0,0,2.33-3"/><path class="cls-11" d="M319.16,41.59l-.07.23.07-.23"/><path class="cls-12" d="M333.61,23.2l-1.69,15.18H348.7L347,23.2a7.19,7.19,0,0,0-7.15-6.4c.15,0,.29,0,.44,0a7.17,7.17,0,0,0-6.7,6.36"/><path class="cls-12" d="M324.73,38.38l1.69-15.18a7.19,7.19,0,0,1,5.16-6.12,7.19,7.19,0,0,0-5.16,6.12l-.89,8Z"/><path class="cls-13" d="M329.6,45l.74-3A4.8,4.8,0,0,1,335,38.38H323.68a4.79,4.79,0,0,0-4.52,3.21l-.07.24L319,42l-.75,3a2.4,2.4,0,0,0,2.33,3h11.31a2.4,2.4,0,0,1-2.33-3"/><path class="cls-11" d="M326.42,23.2l-1.69,15.18h7.19l1.69-15.18a7.17,7.17,0,0,1,6.7-6.36c-.15,0-.29,0-.44,0h-6.3q-.34,0-.68,0a7.18,7.18,0,0,0-6.47,6.37"/><path class="cls-10" d="M358.94,36a4.77,4.77,0,1,0-.65-2.4,4.8,4.8,0,0,0,.65,2.4"/><path class="cls-10" d="M371.48,66.37a4.79,4.79,0,0,0,3.59,8,4.66,4.66,0,0,0,.53,0,4.79,4.79,0,1,0-4.12-7.94"/><path class="cls-13" d="M350,103.1h-12a4.8,4.8,0,0,0-4.52,3.21l-.07.23-.06.19-1.49,6h12l1.49-6A4.8,4.8,0,0,1,350,103.1"/></g></g><g class="cls-14"><g class="cls-15"><path class="cls-16" d="M86.17,137.41a1.07,1.07,0,0,0-1.5-1.52L77,143.57V118.23a1.06,1.06,0,0,0-1.06-1.06,1.07,1.07,0,0,0-1.08,1.06v25.34l-7.66-7.68a1.09,1.09,0,0,0-1.52,0,1.06,1.06,0,0,0,0,1.52l9.5,9.5a1,1,0,0,0,1.5,0Z"/></g></g><g class="cls-17"><g class="cls-18"><path class="cls-16" d="M65.83,123.93a1.07,1.07,0,0,0,1.5,1.52L75,117.76V143.1a1.06,1.06,0,0,0,1.06,1.06,1.07,1.07,0,0,0,1.08-1.06V117.76l7.66,7.68a1.09,1.09,0,0,0,1.52,0,1.06,1.06,0,0,0,0-1.52l-9.5-9.5a1,1,0,0,0-1.5,0Z"/></g></g><g class="cls-19"><g class="cls-20"><path class="cls-16" d="M209.67,129.33a1.07,1.07,0,0,0-2-.72l-3.6,10.25L193.1,116a1.06,1.06,0,0,0-1.42-.5,1.07,1.07,0,0,0-.51,1.42l11,22.84-10.23-3.61a1.09,1.09,0,0,0-1.37.66,1.06,1.06,0,0,0,.66,1.37l12.67,4.45a1,1,0,0,0,1.35-.65Z"/></g></g><g class="cls-21"><g class="cls-22"><path class="cls-16" d="M185.49,126a1.07,1.07,0,0,0,2,.72l3.6-10.25,11,22.84a1.06,1.06,0,0,0,1.42.5,1.07,1.07,0,0,0,.51-1.42l-11-22.84,10.23,3.61a1.09,1.09,0,0,0,1.37-.66,1.06,1.06,0,0,0-.66-1.37l-12.67-4.45a1,1,0,0,0-1.35.65Z"/></g></g></svg>