<svg id="Layer_1" data-name="Layer 1" xmlns="http://www.w3.org/2000/svg" xmlns:xlink="http://www.w3.org/1999/xlink" viewBox="0 0 400 250"><defs><style>.cls-1{fill:none;}.cls-2{fill:#06c5e0;}.cls-3{clip-path:url(#clip-path);}.cls-4{fill:#ffce55;}.cls-5{fill:#f9b406;}.cls-6{fill:#b486fc;}.cls-7{fill:#a667f9;}.cls-8{fill:#ff911a;}.cls-9{fill:#5206d0;}</style><clipPath id="clip-path"><rect class="cls-1" x="22" y="63.5" width="196.5" height="178"/></clipPath></defs><title>office-buildings</title><rect class="cls-2" width="400" height="250"/><g class="cls-3"><polygon class="cls-4" points="120.25 92.06 120.25 241.47 161.44 241.47 161.44 209.44 169.38 209.44 169.38 182.89 146.38 182.89 146.38 168.5 169.38 168.5 169.38 156.63 146.38 156.63 146.38 142.25 169.38 142.25 169.38 130.38 146.38 130.38 146.38 116 169.38 116 169.38 92.06 120.25 92.06"/><polygon class="cls-5" points="169.38 92.06 169.38 116 192.37 116 192.37 130.38 169.38 130.38 169.38 142.25 192.37 142.25 192.37 156.63 169.38 156.63 169.38 168.5 192.37 168.5 192.37 182.89 169.38 182.89 169.38 209.44 177.31 209.44 177.31 241.47 218.5 241.47 218.5 92.06 169.38 92.06"/><polygon class="cls-6" points="22 63.5 22 241.47 63.19 241.47 63.19 209.44 71.13 209.44 71.13 182.89 48.13 182.89 48.13 168.5 71.13 168.5 71.13 156.63 48.13 156.63 48.13 142.25 71.13 142.25 71.13 130.38 48.13 130.38 48.13 116 71.13 116 71.13 104.13 48.13 104.13 48.13 89.75 71.13 89.75 71.13 63.5 22 63.5"/><polygon class="cls-7" points="71.13 63.5 71.13 89.75 94.12 89.75 94.12 104.13 71.13 104.13 71.13 116 94.12 116 94.12 130.38 71.13 130.38 71.13 142.25 94.12 142.25 94.12 156.63 71.13 156.63 71.13 168.5 94.12 168.5 94.12 182.89 71.13 182.89 71.13 209.44 79.06 209.44 79.06 241.47 120.25 241.47 120.25 63.5 71.13 63.5"/><rect class="cls-8" x="161.44" y="209.44" width="15.88" height="32.03"/><rect class="cls-8" x="146.38" y="168.5" width="45.98" height="14.38"/><rect class="cls-8" x="146.38" y="142.25" width="45.98" height="14.38"/><rect class="cls-8" x="146.38" y="116" width="45.98" height="14.38"/><rect class="cls-9" x="63.19" y="209.44" width="15.88" height="32.03"/><rect class="cls-9" x="48.13" y="168.5" width="45.98" height="14.38"/><rect class="cls-9" x="48.13" y="142.25" width="45.98" height="14.38"/><rect class="cls-9" x="48.13" y="116" width="45.98" height="14.38"/><rect class="cls-9" x="48.13" y="89.75" width="45.98" height="14.38"/></g></svg>